<?xml version="1.0" encoding="UTF-8"?>
<svg version="1.1" xmlns="http://www.w3.org/2000/svg" width="840" height="832">
<path d="M0 0 C3.14805631 3.95989616 4.87878912 7.91043816 6.4375 12.69140625 C6.64431396 13.31796616 6.85112793 13.94452606 7.06420898 14.59007263 C7.71802789 16.57820105 8.35908333 18.57018 9 20.5625 C9.42887821 21.8707083 9.85856034 23.17865333 10.2890625 24.48632812 C12.24338802 30.44594023 14.13888661 36.42150321 15.96484375 42.421875 C18.34944036 50.2266082 20.95996605 57.95343091 23.5625 65.6875 C24.52397515 68.54495919 25.48397363 71.40290235 26.44140625 74.26171875 C26.66894089 74.94069214 26.89647552 75.61966553 27.13090515 76.31921387 C28.63381099 80.83018037 30.04097691 85.35880826 31.33349609 89.93432617 C32.08180173 92.25352545 33.04172343 94.41352207 34.0625 96.625 C36.24107346 101.81878539 36.81321107 106.99233167 37.31665039 112.55517578 C37.65749755 116.12732371 37.96432901 117.94649352 40 121 C40.58265625 120.93941406 41.1653125 120.87882812 41.765625 120.81640625 C44.50964569 120.53596388 47.25463515 120.26696058 50 120 C50.95003906 119.90460938 51.90007812 119.80921875 52.87890625 119.7109375 C77.65708532 117.40138685 77.65708532 117.40138685 86.5 123.8125 C88.47732444 126.69609814 89 128.49147967 89 132 C85.20873766 139.92718489 77.18452786 145.34144447 70 150 C70.3609375 150.79019531 70.721875 151.58039063 71.09375 152.39453125 C78.26590583 169.82685444 75.88308523 188.62187132 69.23730469 205.99365234 C62.87457137 220.7399871 52.57706559 230.25285594 39 238 C45.67342571 236.92364101 51.96521188 235.16645658 58.375 233.0625 C59.15987793 232.80968262 59.94475586 232.55686523 60.75341797 232.29638672 C64.64737933 230.99058208 67.88578811 229.78946787 71 227 C73.2004575 227.98641198 74.7752395 228.74130131 76.37109375 230.578125 C77.89618021 232.18397222 77.89618021 232.18397222 80.015625 232.21484375 C85.58149548 231.52397521 89.44604981 230.34575932 94 227 C94.19980469 226.2059375 94.39960938 225.411875 94.60546875 224.59375 C96.88724465 220.34977465 100.97032454 219.70302164 105.375 218.25 C106.23867188 217.94707031 107.10234375 217.64414062 107.9921875 217.33203125 C114.43961933 215.09333964 120.11731995 213.38342658 127 214 C128.33333333 214.66666667 129.66666667 215.33333333 131 216 C138.00915572 216.66827871 142.45758121 214.81639448 148.625 211.625 C161.44836557 205.17299216 161.44836557 205.17299216 167.6875 204.75 C168.780625 204.5025 169.87375 204.255 171 204 C172.75830563 201.15007835 172.75830563 201.15007835 174 198 C184.40111948 188.38202363 202.48155379 189.1852737 215.77832031 188.63256836 C222.46296958 188.34634216 228.54992236 187.80602174 235 186 C237.44140625 186.05078125 237.44140625 186.05078125 239.5625 186.3125 C247.11725892 186.42662023 253.45005822 182.34502374 260 179 C264.00926656 176.97597821 268.03328648 174.98395004 272.0625 173 C273.05016357 172.4949292 274.03782715 171.9898584 275.05541992 171.46948242 C282.17964748 167.95824293 282.17964748 167.95824293 286.68359375 168.1875 C287.44800781 168.455625 288.21242188 168.72375 289 169 C289.0270043 170.45823212 289.04639787 171.91660675 289.0625 173.375 C289.07410156 174.18710938 289.08570313 174.99921875 289.09765625 175.8359375 C289 178 289 178 288 180 C288.39938767 182.09821215 288.39938767 182.09821215 289 184 C293.91258316 185.45144503 296.63783693 184.96201926 301.3125 182.875 C312.77695017 177.77652402 323.56321457 174.81088125 336.125 174.9375 C345.02292261 174.93835615 349.73642709 172.20597058 356.40136719 166.50878906 C361.36702171 162.27240966 365.64003898 160.47221827 372.03125 158.921875 C376.24808125 157.61243793 379.29943905 155.24894906 382.79296875 152.61328125 C390.66744923 146.85724507 400.51035739 146.12268327 410 147 C413.1875 148.5 413.1875 148.5 415 150 C414.67 151.65 414.34 153.3 414 155 C413.03320312 154.96519531 412.06640625 154.93039063 411.0703125 154.89453125 C399.74608131 154.65130461 399.74608131 154.65130461 389 158 C388.67 158.66 388.34 159.32 388 160 C388.60585938 160.12375 389.21171875 160.2475 389.8359375 160.375 C397.36615806 162.22859275 402.27347305 165.87049395 408 171 C407.67 171.99 407.34 172.98 407 174 C402.38802421 173.53880242 399.09111627 172.18496588 395.125 169.9375 C387.88147265 166.74182617 375.90992167 166.48980543 368.3203125 168.82421875 C365.99676756 169.95614604 365.99676756 169.95614604 363 172 C361.67427339 172.68166794 360.34254191 173.3520776 359 174 C359 174.99 359 175.98 359 177 C359.5978833 177.04608398 360.1957666 177.09216797 360.81176758 177.13964844 C367.24157523 177.70022452 373.40501346 178.78868391 379.6875 180.25 C380.64358154 180.47179932 381.59966309 180.69359863 382.5847168 180.92211914 C408.46376433 187.07407007 408.46376433 187.07407007 415 194 C415 195.32 415 196.64 415 198 C405.90055741 202.18574359 400.30020882 201.88937326 390.6875 199.25 C388.51396532 198.68644876 386.3394776 198.12656076 384.1640625 197.5703125 C383.10477539 197.29864258 382.04548828 197.02697266 380.95410156 196.74707031 C354.93529027 190.16710646 331.52285368 193.04234584 306 200 C305.67 201.65 305.34 203.3 305 205 C308.9261697 208.40419338 312.92452879 210.64108174 317.5625 212.875 C318.26705322 213.22232178 318.97160645 213.56964355 319.69750977 213.92749023 C322.91893197 215.5139211 326.15158254 217.07160968 329.3984375 218.60546875 C338.61376002 223.02361181 345.78534672 228.81607782 353.3125 235.625 C353.81652344 236.08028076 354.32054687 236.53556152 354.83984375 237.00463867 C357.87127852 239.7994959 360.67475243 242.58669122 363 246 C363 247.32 363 248.64 363 250 C359.71857458 251.64071271 356.53386321 251.64536864 353 251 C349.15990486 248.91866844 346.02718163 245.90506913 342.765625 243.03125 C330.30979883 232.44786828 314.35578172 228.67640079 299 224 C299 225.32 299 226.64 299 228 C298.195625 228.12375 297.39125 228.2475 296.5625 228.375 C295.716875 228.58125 294.87125 228.7875 294 229 C292.66667905 231.6666419 293.32897967 233.16680303 294 236 C293.01 236 292.02 236 291 236 C291.33 237.32 291.66 238.64 292 240 C291.01 240.33 290.02 240.66 289 241 C289 242.32 289 243.64 289 245 C283.76074447 247.20600233 278.60205263 248.03105263 273 247 C269.982323 245.32567598 267.55245077 243.29993988 265 241 C265.26989746 241.9912085 265.53979492 242.98241699 265.81787109 244.00366211 C269.33190637 257.76085655 270.01039637 271.42364259 270.625 285.5625 C270.7855215 289.05843585 270.9506612 292.5540066 271.12460327 296.04930115 C271.23101741 298.20373813 271.32954687 300.3585852 271.41860962 302.5138092 C271.77846837 310.03479545 272.32581685 317.70532292 276.125 324.375 C277.61169062 327.0119768 278 327.85600862 278 331 C273.51462365 329.50487455 271.303164 325.90223257 269 322 C267.83301906 319.18612892 267.03633468 316.31519475 266.25 313.375 C265.75334854 311.62311646 265.25450457 309.87185356 264.75390625 308.12109375 C264.34615967 306.68032471 264.34615967 306.68032471 263.93017578 305.21044922 C262.30009364 299.58431268 260.5466372 293.9960832 258.8013916 288.40484619 C258.19381054 286.45772347 257.58830984 284.5099653 256.98339844 282.56201172 C255.03428712 276.2673339 255.03428712 276.2673339 253 270 C253.18028833 277.76878804 254.57874038 284.96884494 256.375 292.5 C258.69621048 302.24573814 260.37840983 311.97696212 261.71679688 321.90185547 C262.12650152 324.9372018 262.56402065 327.96832875 263 331 C262.01 331.33 261.02 331.66 260 332 C256.28623388 323.34730781 253.24318599 314.74890447 250.82983398 305.64526367 C249.22834988 299.65724571 247.28568788 293.89264602 245.12890625 288.078125 C244.10994213 285.299773 243.19598299 282.51109388 242.3125 279.6875 C241.458514 275.94064014 241.458514 275.94064014 239 275 C239.19335938 276.00417969 239.38671875 277.00835937 239.5859375 278.04296875 C239.84949993 279.42437594 240.11247633 280.80589502 240.375 282.1875 C240.51437988 282.92000977 240.65375977 283.65251953 240.79736328 284.40722656 C241.59906492 288.67863344 242.29091492 292.94237255 242.875 297.25 C243.8365149 303.80948725 245.51043661 310.13209132 247.17651367 316.5390625 C248.73351995 322.63487257 249.8277279 328.60298248 250.54296875 334.859375 C250.95987936 338.14165554 250.95987936 338.14165554 252.01171875 341.828125 C253.15086269 346.20888433 253.4374386 350.49071138 253.625 355 C253.68300781 356.16208984 253.68300781 356.16208984 253.7421875 357.34765625 C253.83521357 359.23143415 253.91863175 361.11568256 254 363 C252.68 363 251.36 363 250 363 C249.70867188 362.05382812 249.41734375 361.10765625 249.1171875 360.1328125 C245.89022858 349.70417698 242.47638794 339.3483176 239 329 C239.33 334.61 239.66 340.22 240 346 C238.68 345.67 237.36 345.34 236 345 C234.65625 342.59375 234.65625 342.59375 233.5 339.5 C231.49686613 334.24854094 229.31560629 329.11961588 227 324 C227.26341903 328.67750905 227.53006482 333.35481954 227.79956055 338.03198242 C227.89059337 339.61949824 227.98078044 341.20706282 228.07006836 342.79467773 C228.75026054 354.92111891 228.75026054 354.92111891 230 367 C228.68 367.33 227.36 367.66 226 368 C225.20701081 365.167031 224.41557728 362.33364215 223.625 359.5 C223.40328125 358.70851563 223.1815625 357.91703125 222.953125 357.1015625 C221.55518611 352.08542885 220.24111785 347.05726524 219 342 C218.67 342 218.34 342 218 342 C218.36061826 350.02375624 219.8817163 357.65354429 221.71582031 365.44848633 C221.98410645 366.63220825 221.98410645 366.63220825 222.2578125 367.83984375 C222.4242627 368.54488037 222.59071289 369.24991699 222.76220703 369.97631836 C223.0281109 372.2392313 222.67819103 373.8402737 222 376 C218.87663758 373.91775839 218.49332055 373.40934334 217.2109375 370.12109375 C216.90929687 369.36505859 216.60765625 368.60902344 216.296875 367.83007812 C215.99265625 367.04052734 215.6884375 366.25097656 215.375 365.4375 C214.75983662 363.87290057 214.14274949 362.30905569 213.5234375 360.74609375 C213.25450684 360.05185303 212.98557617 359.3576123 212.70849609 358.64233398 C212.11742924 356.99437044 212.11742924 356.99437044 211 356 C211.33 361.61 211.66 367.22 212 373 C211.01 373 210.02 373 209 373 C207.02 368.38 205.04 363.76 203 359 C202.67 359 202.34 359 202 359 C201.73445312 360.26714844 201.46890625 361.53429687 201.1953125 362.83984375 C200.83856923 364.53906829 200.48179683 366.23828671 200.125 367.9375 C199.95097656 368.76830078 199.77695312 369.59910156 199.59765625 370.45507812 C199.42363281 371.28330078 199.24960937 372.11152344 199.0703125 372.96484375 C198.89516113 373.80200928 198.72000977 374.6391748 198.53955078 375.50170898 C198.18562173 377.14051261 197.81473564 378.77576501 197.42529297 380.40649414 C196.36044521 384.88083892 195.76850501 388.92996796 195.875 393.5625 C195.90207031 395.11130859 195.90207031 395.11130859 195.9296875 396.69140625 C195.95289063 397.45324219 195.97609375 398.21507812 196 399 C195.01 399.33 194.02 399.66 193 400 C192.11598321 401.935527 192.11598321 401.935527 191.60546875 404.36328125 C191.26092651 405.76598267 191.26092651 405.76598267 190.90942383 407.19702148 C190.67118896 408.22512939 190.4329541 409.2532373 190.1875 410.3125 C189.92670654 411.38121338 189.66591309 412.44992676 189.3972168 413.55102539 C188.01059741 419.32575475 186.7635801 425.10915855 185.6640625 430.9453125 C181.84525434 450.92556279 175.57771719 479.33737909 158 492 C157.195625 492.45375 156.39125 492.9075 155.5625 493.375 C153.59650758 495.07765742 153.59650758 495.07765742 153.6875 498.75 C153.7853124 501.28282646 154.10891409 503.68599624 154.50708008 506.19384766 C156.27790599 519.86753557 154.65804763 534.14402601 153.85449219 547.85839844 C153.33252898 556.86670227 152.91089012 565.84961649 152.90625 574.875 C152.90584717 575.6106015 152.90544434 576.346203 152.9050293 577.10409546 C152.93139975 582.14239067 153.26207455 587.01900322 154 592 C153.34 592 152.68 592 152 592 C146.16553811 579.45307467 145.68777433 566.43058109 144.78466797 552.81640625 C144.23215475 544.81164333 143.2254256 536.92883078 142 529 C142.00523682 530.00562988 142.01047363 531.01125977 142.01586914 532.04736328 C142.10465694 550.72352001 142.16170163 569.35053997 141 588 C140.01 588.33 139.02 588.66 138 589 C136.20565158 580.2955013 135.50805232 571.58451108 134.82519531 562.73828125 C133.90111543 551.11716766 132.4718743 539.56261973 131 528 C130.01911151 530.94266546 129.85351692 532.92518635 129.81054688 535.99609375 C129.79382935 537.01566162 129.77711182 538.03522949 129.7598877 539.08569336 C129.73952454 540.74483765 129.73952454 540.74483765 129.71875 542.4375 C129.69113586 544.16141968 129.69113586 544.16141968 129.66296387 545.92016602 C129.60416091 549.61339126 129.55151026 553.30666633 129.5 557 C129.10530225 584.65097506 129.10530225 584.65097506 128.53125 595.77734375 C128.49390747 596.51247192 128.45656494 597.2476001 128.41809082 598.00500488 C127.50338073 613.99323855 127.50338073 613.99323855 125 619 C124.01 618.67 123.02 618.34 122 618 C121.71273396 613.55272435 121.42798546 609.1052966 121.14550781 604.65771484 C121.04918457 603.14660351 120.95218906 601.63553487 120.85449219 600.12451172 C120.71369944 597.94509749 120.575373 595.76553815 120.4375 593.5859375 C120.31181641 591.62213135 120.31181641 591.62213135 120.18359375 589.61865234 C120.020475 586.40356449 119.96516079 583.21827194 120 580 C119.34 580 118.68 580 118 580 C118.01740234 581.58941406 118.01740234 581.58941406 118.03515625 583.2109375 C118.04453476 584.59895658 118.05363489 585.98697755 118.0625 587.375 C118.07087891 588.07367187 118.07925781 588.77234375 118.08789062 589.4921875 C118.11328125 594.7734375 118.11328125 594.7734375 117 597 C115.078125 596.515625 115.078125 596.515625 113 595 C112.36358295 592.1541351 111.98240593 589.63086514 111.75 586.75 C111.63398437 585.62271484 111.63398437 585.62271484 111.515625 584.47265625 C111.10810604 580.30286399 110.91987148 576.19339244 111 572 C110.34 572 109.68 572 109 572 C109.04898437 572.90234375 109.09796875 573.8046875 109.1484375 574.734375 C109.14561247 580.35617637 107.78389006 585.77457001 106.625 591.25 C106.1787448 593.40084629 105.73342517 595.55188692 105.2890625 597.703125 C105.07282227 598.74533203 104.85658203 599.78753906 104.63378906 600.86132812 C103.68468389 605.56151921 102.83254229 610.2779426 102 615 C101.01 615.33 100.02 615.66 99 616 C97.61691219 613.23382437 97.88789804 610.98982 97.90234375 607.8984375 C97.90556641 606.68671875 97.90878906 605.475 97.91210938 604.2265625 C97.92048828 602.95554687 97.92886719 601.68453125 97.9375 600.375 C97.94426758 598.456875 97.94426758 598.456875 97.95117188 596.5 C97.96298797 593.33328708 97.97946185 590.16666644 98 587 C96.685124 590.6434461 95.74848093 593.84120846 95.62109375 597.71484375 C95.58693359 598.56626953 95.55277344 599.41769531 95.51757812 600.29492188 C95.49115234 601.16697266 95.46472656 602.03902344 95.4375 602.9375 C95.23646301 608.69913454 94.93722518 614.30693796 94 620 C93.01 620.33 92.02 620.66 91 621 C89.38159365 613.37282967 88.13635546 605.71271047 87 598 C86.87882812 598.96421875 86.75765625 599.9284375 86.6328125 600.921875 C86.46523438 602.18515625 86.29765625 603.4484375 86.125 604.75 C85.88136719 606.62945313 85.88136719 606.62945313 85.6328125 608.546875 C85.0941645 611.48616408 84.51991159 613.47107147 83 616 C82.34 615.67 81.68 615.34 81 615 C80.69330919 612.98947135 80.48529652 610.96393186 80.3125 608.9375 C79.1267047 597.62101257 75.3635523 586.82063649 72 576 C68.87128822 580.69306767 68.89677963 585.849654 68.25 591.375 C68.09917969 592.49261719 67.94835937 593.61023438 67.79296875 594.76171875 C67.66019531 595.87933594 67.52742188 596.99695313 67.390625 598.1484375 C67.2054834 599.65156494 67.2054834 599.65156494 67.01660156 601.18505859 C67.00152218 604.65021206 67.39297707 607.56025485 67.99050903 610.9577179 C69.02754365 617.5301692 69.23741195 623.85015618 69.13525391 630.49145508 C69.12106163 632.2499453 69.12106163 632.2499453 69.10658264 634.04396057 C69.07325091 637.86932168 69.02504326 641.6943348 68.9765625 645.51953125 C68.95035958 648.19137684 68.92499171 650.86321742 68.90072632 653.53507996 C68.84185873 659.81754808 68.77225849 666.09984804 68.69865549 672.38215894 C68.61529253 679.54306492 68.54411754 686.70407652 68.47388959 693.86512148 C68.32934295 708.57689945 68.1697397 723.28849058 68 738 C67.3814917 738.24596924 66.7629834 738.49193848 66.12573242 738.74536133 C64.9091394 739.25232544 64.9091394 739.25232544 63.66796875 739.76953125 C62.86383545 740.09800049 62.05970215 740.42646973 61.23120117 740.76489258 C58.19570376 742.44522756 56.93366306 744.49374219 55.36328125 747.51171875 C53.18199956 749.89300335 51.18068964 749.73226518 48 750 C44.66484634 750.07999109 41.33551664 750.04676378 38 750 C31.73706284 749.93286036 25.66191008 750.05453519 19.4375 750.75 C10.75803316 751.45012307 3.35592902 749.01990647 -3.8125 744.125 C-6.25150566 741.67225545 -6.97499418 740.50458292 -7.14855957 737.00227356 C-7.03314819 735.87077377 -6.91773682 734.73927399 -6.79882812 733.57348633 C-6.67813965 732.32717438 -6.55745117 731.08086243 -6.43310547 729.79678345 C-6.29018066 728.54384491 -6.14725586 727.29090637 -6 726 C-5.87898926 724.89538422 -5.75797852 723.79076843 -5.63330078 722.65267944 C-5.25034089 719.33109683 -4.83334563 716.01540247 -4.40625 712.69921875 C-4.17887146 710.89648247 -4.17887146 710.89648247 -3.94689941 709.05732727 C-3.46813343 705.26692715 -2.98426511 701.47720107 -2.5 697.6875 C-2.01682916 693.87981451 -1.53472061 690.07199632 -1.05310059 686.26411438 C-0.75484048 683.90881663 -0.45550512 681.5536547 -0.15490723 679.19865417 C2.06209141 661.77764271 3.00239632 646.4642977 -1.30810547 629.3215332 C-1.88654808 627.01648176 -2.43521096 624.70568284 -2.98046875 622.39257812 C-3.33687358 620.91886642 -3.69488274 619.44554155 -4.0546875 617.97265625 C-4.21935516 617.28430191 -4.38402283 616.59594757 -4.55368042 615.88673401 C-4.97250558 614.24041559 -5.47852299 612.61673763 -6 611 C-6.66 610.67 -7.32 610.34 -8 610 C-7.95552734 611.57394531 -7.95552734 611.57394531 -7.91015625 613.1796875 C-7.91148108 619.20768067 -8.72381543 625.14773675 -9.4375 631.125 C-10.28361606 638.41281468 -11.12205226 645.67551717 -11.5625 653 C-11.85789299 657.85891321 -12.57071984 662.48495891 -13.52734375 667.25390625 C-14.23018565 671.33735958 -14.49062001 675.43442418 -14.75390625 679.56640625 C-15 682 -15 682 -16 684 C-16.99 684 -17.98 684 -19 684 C-20.66262502 678.75580358 -21.48489862 673.77959877 -22 668.3125 C-23.03161242 656.08608207 -23.03161242 656.08608207 -25.9921875 644.2578125 C-27.28724199 640.07147356 -27.70192615 635.97364432 -28.125 631.625 C-28.25455078 630.37783203 -28.25455078 630.37783203 -28.38671875 629.10546875 C-28.59718843 627.07092853 -28.79943314 625.0355403 -29 623 C-29.66 623 -30.32 623 -31 623 C-31.66 625.97 -32.32 628.94 -33 632 C-34.32 632 -35.64 632 -37 632 C-37.01030746 631.39944794 -37.02061493 630.79889587 -37.03123474 630.18014526 C-37.13958507 623.91816955 -37.25415903 617.65632946 -37.37231445 611.39453125 C-37.41557199 609.05894819 -37.45725342 606.72333538 -37.49731445 604.38769531 C-37.55523969 601.02660158 -37.61886986 597.66565634 -37.68359375 594.3046875 C-37.70866249 592.74341629 -37.70866249 592.74341629 -37.73423767 591.15060425 C-37.83213493 586.33769726 -38.00925921 581.73158058 -39 577 C-39.06058594 577.84304688 -39.12117188 578.68609375 -39.18359375 579.5546875 C-39.26738281 580.65039062 -39.35117187 581.74609375 -39.4375 582.875 C-39.51871094 583.96554687 -39.59992188 585.05609375 -39.68359375 586.1796875 C-40 589 -40 589 -41 591 C-41.66 591 -42.32 591 -43 591 C-43.20496094 590.28972656 -43.40992188 589.57945312 -43.62109375 588.84765625 C-43.89050781 587.92855469 -44.15992188 587.00945313 -44.4375 586.0625 C-44.83775391 584.68771484 -44.83775391 584.68771484 -45.24609375 583.28515625 C-45.79026051 581.0597507 -45.79026051 581.0597507 -47 580 C-47.08040527 580.82725586 -47.16081055 581.65451172 -47.24365234 582.50683594 C-47.54675416 585.58628117 -47.85693302 588.66490899 -48.171875 591.74316406 C-48.37263855 593.72666937 -48.56527446 595.71099186 -48.7578125 597.6953125 C-48.88671875 598.94570313 -49.015625 600.19609375 -49.1484375 601.484375 C-49.26364746 602.63647461 -49.37885742 603.78857422 -49.49755859 604.97558594 C-49.95756832 607.74458519 -50.57817557 609.60804987 -52 612 C-55 610 -55 610 -55.6953125 608.04223633 C-57.24135482 598.96538675 -57.60729928 589.87100813 -58 580.6875 C-58.62346091 566.20368724 -59.92252836 552.20875203 -63 538 C-63.66 538 -64.32 538 -65 538 C-65.16435547 539.80984375 -65.16435547 539.80984375 -65.33203125 541.65625 C-65.49161774 543.27088975 -65.65180619 544.88547008 -65.8125 546.5 C-65.91788086 547.68722656 -65.91788086 547.68722656 -66.02539062 548.8984375 C-66.58722064 554.38189844 -67.87048672 558.91250527 -70 564 C-70.99 563.67 -71.98 563.34 -73 563 C-72.99777939 562.36425049 -72.99555878 561.72850098 -72.99327087 561.07348633 C-72.97076232 554.32227148 -72.95590851 547.57106764 -72.94506836 540.81982422 C-72.94010791 538.31623907 -72.93333747 535.81265671 -72.92456055 533.30908203 C-72.8710311 517.62180621 -73.12873598 502.0022299 -73.89685059 486.3334198 C-74.26234244 478.06535605 -73.96242319 469.87872562 -73.5 461.625 C-73.32757487 458.41694343 -73.16238162 455.20857856 -73 452 C-72.93167969 450.70707031 -72.86335938 449.41414063 -72.79296875 448.08203125 C-72.49923099 437.93175968 -74.40076555 428.74160675 -77 419 C-77.26167969 417.99839844 -77.52335937 416.99679687 -77.79296875 415.96484375 C-79.16618583 411.29894041 -79.9458341 410.04062443 -84 407 C-84 425.48 -84 443.96 -84 463 C-84.99 463 -85.98 463 -87 463 C-89.35675815 457.19465225 -90.78351126 451.65618922 -91.875 445.5 C-93.57743985 436.41012656 -96.01948515 427.74610095 -99 419 C-99.29714171 431.33138089 -98.65902472 443.51023253 -97.71142578 455.80737305 C-96.65389348 469.71646766 -96.65389348 469.71646766 -97 475 C-98.515625 476.73852539 -98.515625 476.73852539 -100 478 C-102.01677529 473.53267372 -103.50796154 469.3522255 -104.625 464.5625 C-107.15805698 454.38257854 -111.12721227 444.68896242 -114.890625 434.91601562 C-116.64789074 430.2970055 -118.32762229 425.65030368 -120 421 C-122.11612253 423.11612253 -121.75295781 427.39367219 -122.0625 430.3125 C-122.19664307 431.56703979 -122.19664307 431.56703979 -122.33349609 432.84692383 C-123.24829903 442.23105949 -123.17861934 451.58279161 -123 461 C-123.99 461 -124.98 461 -126 461 C-126.63121136 459.64871743 -127.25459835 458.29377953 -127.875 456.9375 C-128.39707031 455.80634766 -128.39707031 455.80634766 -128.9296875 454.65234375 C-130.19314804 451.52135942 -131.07245931 448.24639241 -132 445 C-132 452.26 -132 459.52 -132 467 C-132.99 467 -133.98 467 -135 467 C-137.48130738 460.76148572 -139.09917693 454.65248234 -140.4609375 448.09179688 C-141.38927153 443.8724426 -142.49364532 440.61000518 -145 437 C-144.44973419 443.49313659 -143.23249996 449.57216524 -141.62109375 455.88671875 C-140.99787903 459.01063153 -140.89048077 461.82394234 -141 465 C-141.99 465 -142.98 465 -144 465 C-144.26627197 464.35675781 -144.53254395 463.71351563 -144.80688477 463.05078125 C-150.08440224 450.31296416 -155.40352367 437.60133743 -161 425 C-160.9278125 425.72703125 -160.855625 426.4540625 -160.78125 427.203125 C-160.10841208 434.49220248 -159.88322565 441.68214066 -160 449 C-161.32 449 -162.64 449 -164 449 C-165.65 444.05 -167.3 439.1 -169 434 C-167.97881429 444.38005243 -166.66347855 454.53628546 -164.48828125 464.7421875 C-164.04958621 467.66916078 -163.97969773 469.27462883 -165 472 C-168 471 -168 471 -169.68359375 467.7109375 C-170.28253218 466.27149332 -170.86622837 464.82564659 -171.4375 463.375 C-171.74461914 462.61243896 -172.05173828 461.84987793 -172.36816406 461.06420898 C-174.73880691 455.02182338 -176.54245687 448.96943428 -178.078125 442.66015625 C-178.79970508 439.79523874 -179.59635565 437.0044607 -180.46484375 434.18359375 C-181.98948798 429.16856603 -183.16639157 424.11224683 -184.3125 419 C-187.96144308 403.10131666 -187.96144308 403.10131666 -194 388 C-194.25111619 395.09186761 -193.28021736 401.81418678 -192.1875 408.8125 C-192.00735352 409.99924316 -191.82720703 411.18598633 -191.64160156 412.40869141 C-190.80708269 417.88180591 -189.9478543 423.35066269 -189.06640625 428.81640625 C-188.92759033 429.67967529 -188.78877441 430.54294434 -188.64575195 431.43237305 C-188.38950278 433.01397264 -188.12918537 434.5949207 -187.86401367 436.17504883 C-187.26755854 439.82107415 -186.85503129 443.30329786 -187 447 C-188.8515625 446.953125 -188.8515625 446.953125 -191 446 C-192.02049949 443.53327118 -192.72773822 441.31895474 -193.375 438.75 C-193.79797412 437.19525727 -194.22116093 435.64057239 -194.64453125 434.0859375 C-194.97251709 432.84602051 -194.97251709 432.84602051 -195.30712891 431.58105469 C-196.25287536 428.0579992 -197.27078981 424.55725512 -198.28686523 421.05395508 C-205.72695427 395.35672594 -205.72695427 395.35672594 -207 387 C-207.66 387 -208.32 387 -209 387 C-208.20161504 391.54936099 -207.40198463 396.0985009 -206.60131836 400.64746094 C-206.3304883 402.18711783 -206.05996823 403.72682929 -205.78979492 405.26660156 C-205.39588618 407.51122123 -205.0009726 409.75566086 -204.60546875 412 C-204.47439224 412.74455948 -204.34331573 413.48911896 -204.20826721 414.25624084 C-203.54276125 418.01459404 -202.85937345 421.76844855 -202.14233398 425.51733398 C-201.93541679 426.60069031 -201.93541679 426.60069031 -201.72431946 427.70593262 C-201.34424532 429.68403496 -200.95962839 431.6612629 -200.57470703 433.63842773 C-199.39469312 440.54055665 -199.74615745 446.37933752 -202 453 C-202.66 453 -203.32 453 -204 453 C-204.0515625 452.07703125 -204.103125 451.1540625 -204.15625 450.203125 C-205.20880833 438.09870426 -209.1255873 428.05305401 -214 417 C-214.60103039 415.6136148 -215.20133797 414.22691592 -215.80078125 412.83984375 C-216.92404864 410.25411872 -218.05617391 407.67252016 -219.1953125 405.09375 C-221.27378048 400.38286626 -223.33936061 395.66707239 -225.375 390.9375 C-225.72111328 390.15173584 -226.06722656 389.36597168 -226.42382812 388.55639648 C-228.37836266 383.98586045 -229.53933587 379.95542985 -230 375 C-232.33524782 377.25740623 -234.18705073 379.2805761 -236 382 C-238.64453125 383.01953125 -238.64453125 383.01953125 -241.8125 383.8125 C-242.85019531 384.08707031 -243.88789063 384.36164063 -244.95703125 384.64453125 C-248.35862786 385.04189363 -250.02429711 384.64010913 -253 383 C-253.33 382.34 -253.66 381.68 -254 381 C-263.33307171 387.37380507 -267.42771615 398.06851655 -270.78320312 408.47973633 C-272.34518616 413.08908374 -274.21869807 415.92877462 -278 419 C-281.8125 419.8125 -281.8125 419.8125 -285 420 C-286.18336261 405.50380799 -279.37317953 388.34616315 -270.625 377.125 C-268.17162405 373.927606 -266.43560403 371.64493912 -266.1875 367.5625 C-267.16318314 363.28450471 -268.45015188 362.39614748 -272 360 C-272 359.01 -272 358.02 -272 357 C-273.98 357.33 -275.96 357.66 -278 358 C-278 356.68 -278 355.36 -278 354 C-300.93244834 362.03666033 -317.30911774 373.53806289 -333.89672852 391.18237305 C-339.05601612 396.54718527 -343.30225317 400.54529826 -351.04052734 401.1628418 C-352.69444484 401.18365486 -354.34917268 401.10317671 -356 401 C-357 399 -357 399 -356.5390625 397.22265625 C-349.56205535 380.734259 -334.05647169 368.53866131 -320.23828125 357.8671875 C-317.93108303 356.19578871 -317.93108303 356.19578871 -317 354 C-327.07899604 352.38173187 -334.3502003 353.21584271 -342.921875 358.95703125 C-348.32814153 363.12862339 -352.34096104 367.22062438 -355.5859375 373.25 C-357.48469959 375.59984922 -359.06977578 375.68639741 -362 376 C-360.54810658 367.22619248 -355.97739213 360.39441949 -350 354 C-358.41849323 354.73139391 -364.34302649 356.88720831 -371.40625 361.5390625 C-374 363 -374 363 -378 363 C-378.8125 361.3125 -378.8125 361.3125 -379 359 C-375.52033518 354.89492697 -371.68178232 352.50665781 -366.875 350.25 C-366.25496094 349.94707031 -365.63492188 349.64414062 -364.99609375 349.33203125 C-360.72299652 347.26440356 -357.36731513 345.86191254 -352.61328125 345.97265625 C-351.75669922 345.98490234 -350.90011719 345.99714844 -350.01757812 346.00976562 C-348.23363527 346.04454285 -346.44976851 346.08351117 -344.66601562 346.12695312 C-340.52593203 346.1795158 -336.82281087 346.09551444 -332.8203125 344.9765625 C-328.76624687 343.94024716 -325.71319111 343.94794194 -321.5625 344.3125 C-319.60376953 344.45945312 -319.60376953 344.45945312 -317.60546875 344.609375 C-314 345 -314 345 -311.48828125 345.578125 C-307.60348611 346.46854015 -305.71812609 346.38593171 -302.12890625 344.45703125 C-300.51326088 343.40300557 -298.8979428 342.34780257 -297.30834961 341.25488281 C-292.292698 337.8999611 -287.21977058 336.2328151 -281.38061523 334.81201172 C-276.6759642 333.57670899 -274.72269267 331.97932006 -272 328 C-270.88625 327.2575 -270.88625 327.2575 -269.75 326.5 C-267.69402911 325.08973751 -267.69402911 325.08973751 -267.75 322.3125 C-267.8325 321.549375 -267.915 320.78625 -268 320 C-268.66 319.67 -269.32 319.34 -270 319 C-270.484375 317.22265625 -270.484375 317.22265625 -270.75 315.0625 C-270.84796875 314.35222656 -270.9459375 313.64195312 -271.046875 312.91015625 C-271 311 -271 311 -269 309 C-262.36036567 308.34423365 -256.01864002 310.08233127 -249.5625 311.5 C-247.8928418 311.85771484 -247.8928418 311.85771484 -246.18945312 312.22265625 C-243.45819969 312.80876214 -240.72853132 313.40137252 -238 314 C-237.85723633 313.20988525 -237.71447266 312.41977051 -237.56738281 311.60571289 C-236.90635309 308.56992537 -236.55353269 307.73868588 -234 306 C-230.72962016 305.0527424 -227.485551 304.31952227 -224.15625 303.62695312 C-219.10652965 302.49266444 -215.43320543 300.6714245 -211 298 C-209.27107331 297.2804467 -207.52107629 296.60846793 -205.75 296 C-202.8953813 295.00946291 -200.0524932 294.02031517 -197.234375 292.9296875 C-189.02243248 289.76222396 -179.88637753 286.9336347 -171 288 C-170.29488281 288.69351562 -169.58976563 289.38703125 -168.86328125 290.1015625 C-165.22076094 292.51665782 -163.65474476 292.0825904 -159.51513672 291.28491211 C-158.30108154 291.02013062 -158.30108154 291.02013062 -157.0625 290.75 C-151.06468866 289.60506785 -145.48716843 288.79752668 -139.375 288.9375 C-133.83835716 289.06068058 -129.27511285 288.75837095 -124 287 C-123.32878662 285.66894973 -122.66282146 284.33524902 -122 283 C-116.44230804 277.53194824 -109.37037744 277.16139281 -102 276 C-100.42605469 275.72929688 -100.42605469 275.72929688 -98.8203125 275.453125 C-92.24535912 274.54246664 -89.52946068 275.49091918 -84 279 C-78.63220111 279.58557806 -74.12799136 278.43943617 -69 277 C-68.34 274.36 -67.68 271.72 -67 269 C-63 268 -63 268 -60.13427734 268.49536133 C-56.69724719 269.04874514 -54.25788507 268.73589942 -50.8515625 268.07421875 C-49.68786133 267.85531982 -48.52416016 267.6364209 -47.32519531 267.41088867 C-46.10413086 267.17217041 -44.88306641 266.93345215 -43.625 266.6875 C-33.43497583 264.77341366 -23.31369081 263.07300821 -13 262 C-13.66 259.69 -14.32 257.38 -15 255 C-15.58160889 255.16153564 -16.16321777 255.32307129 -16.76245117 255.48950195 C-30.69003082 258.66708723 -49.40142427 256.22359549 -62 250 C-62.70205566 249.66967773 -63.40411133 249.33935547 -64.12744141 248.99902344 C-81.12440004 240.9567801 -91.09367778 231.69486942 -98 214 C-98.96420655 210.67128692 -99.66838537 207.44879215 -100 204 C-101.010625 204.33 -102.02125 204.66 -103.0625 205 C-109.48850179 206.57771012 -116.4741805 207.04500805 -123 206 C-126.01953125 203.78515625 -126.01953125 203.78515625 -128 201 C-127.98213004 197.14008942 -126.35161548 194.61194328 -124.1875 191.5 C-123.68605469 190.7678125 -123.18460938 190.035625 -122.66796875 189.28125 C-121.84232422 188.15203125 -121.84232422 188.15203125 -121 187 C-120.45214844 186.22011719 -119.90429688 185.44023437 -119.33984375 184.63671875 C-116.08554802 180.96952406 -112.30377921 178.2228289 -108.375 175.3125 C-106.84023541 174.163976 -105.30634028 173.01428898 -103.7734375 171.86328125 C-103.09716309 171.36094971 -102.42088867 170.85861816 -101.72412109 170.34106445 C-99.88532332 168.96799369 -99.88532332 168.96799369 -98 167 C-97.59580519 160.47452791 -100.04232278 154.92620767 -102.9375 149.25 C-103.75834398 147.58489731 -104.57863584 145.91952236 -105.3984375 144.25390625 C-105.82608398 143.39555176 -106.25373047 142.53719727 -106.69433594 141.65283203 C-108.009867 138.97995235 -109.28094542 136.29018075 -110.5390625 133.58984375 C-120.09208952 113.08975402 -130.81413254 93.64249961 -146.91796875 77.515625 C-149.09387202 74.88657865 -149.69232627 73.35424697 -150 70 C-134.31886958 55.69274505 -116.4234349 42.54847181 -98 32 C-97.27087402 31.58008789 -96.54174805 31.16017578 -95.79052734 30.72753906 C-68.9487078 15.36287372 -41.95467425 5.29782863 -11.109375 1.35375977 C-1.76622244 -0.21316478 -1.76622244 -0.21316478 0 0 Z M29 240 C28.67 240.66 28.34 241.32 28 242 C29.98 241.67 31.96 241.34 34 241 C34 240.67 34 240.34 34 240 C32.35 240 30.7 240 29 240 Z " fill="#2D5A1B" transform="translate(401,42)"/>
</svg>
